<svg width="200" height="60" viewBox="0 0 200 60" fill="none" xmlns="http://www.w3.org/2000/svg">
<path d="M184.073 0.000148148H15.9357C15.3229 0.000148148 14.7173 0.000148148 14.106 0.0031111C13.5944 0.00607406 13.0868 0.0146666 12.5702 0.0219259C11.4479 0.0336275 10.3282 0.12114 9.22095 0.283703C8.11522 0.449805 7.04413 0.762965 6.0439 1.21259C5.04493 1.66604 4.13215 2.25524 3.33867 2.95881C2.54102 3.66035 1.8761 4.47123 1.3695 5.36028C0.86148 6.24765 0.509229 7.19855 0.324909 8.18013C0.138823 9.16043 0.0386888 10.152 0.0254044 11.146C0.00986091 11.6003 0.00818957 12.056 0 12.5103V46.7535C0.00818957 47.2135 0.00986091 47.6591 0.0254044 48.1194C0.0387014 49.1133 0.138836 50.1049 0.324909 51.0851C0.508734 52.0672 0.861006 53.0186 1.3695 53.9062C1.87586 54.7925 2.54087 55.6001 3.33867 56.2978C4.12915 57.0045 5.04252 57.594 6.0439 58.044C7.04412 58.4948 8.1151 58.8099 9.22095 58.9785C10.3284 59.1398 11.4479 59.2273 12.5702 59.2404C13.0866 59.2505 13.5944 59.2563 14.1061 59.2563C14.7173 59.2593 15.3229 59.2593 15.9357 59.2593H184.073C184.673 59.2593 185.284 59.2593 185.884 59.2563C186.394 59.2563 186.916 59.2505 187.425 59.2404C188.545 59.228 189.663 59.1405 190.768 58.9785C191.877 58.8087 192.952 58.4937 193.957 58.044C194.958 57.5938 195.87 57.0042 196.66 56.2978C197.456 55.5974 198.122 54.7903 198.635 53.9062C199.14 53.0179 199.488 52.0666 199.67 51.0851C199.856 50.1047 199.96 49.1133 199.98 48.1193C199.987 47.6591 199.987 47.2135 199.987 46.7535C200 46.2153 200 45.68 200 45.1331V14.1278C200 13.5852 200 13.0471 199.987 12.5103C199.987 12.056 199.987 11.6003 199.98 11.1459C199.96 10.1518 199.856 9.16042 199.67 8.17998C199.488 7.19907 199.139 6.24835 198.635 5.36043C197.603 3.57827 195.967 2.1276 193.957 1.21244C192.952 0.763919 191.877 0.450843 190.768 0.283555C189.663 0.120301 188.545 0.0327824 187.425 0.0217777C186.916 0.0145185 186.394 0.00577776 185.884 0.00296296C185.284 0 184.673 0 184.073 0L184.073 0.000148148Z" fill="#A6A6A6"/>
<path d="M14.114 57.963C13.6048 57.963 13.1079 57.9572 12.6026 57.9471C11.5561 57.9351 10.5119 57.8544 9.47875 57.7057C8.51538 57.5585 7.58215 57.2849 6.70984 56.8938C5.84549 56.506 5.05713 55.9975 4.37497 55.3877C3.68288 54.7852 3.10668 54.0863 2.6692 53.3189C2.22695 52.5464 1.92088 51.7184 1.76166 50.8638C1.58978 49.9454 1.49681 49.0168 1.48355 48.086C1.47286 47.7735 1.45898 46.7334 1.45898 46.7334V12.5102C1.45898 12.5102 1.47369 11.4859 1.48355 11.1849C1.49629 10.2556 1.58876 9.32845 1.76016 8.41157C1.91969 7.55456 2.22602 6.72419 2.66853 5.9492C3.10433 5.18224 3.67726 4.48283 4.36511 3.8781C5.05223 3.26762 5.84314 2.75647 6.709 2.36329C7.57933 1.97351 8.51081 1.70188 9.47223 1.55751C10.5088 1.40732 11.5566 1.32615 12.6068 1.3147L14.1149 1.29633H185.876L187.402 1.31514C188.443 1.3261 189.481 1.40662 190.509 1.55603C191.48 1.70225 192.421 1.97582 193.301 2.36773C195.036 3.16008 196.447 4.41365 197.337 5.95276C197.773 6.72243 198.074 7.54607 198.232 8.39572C198.405 9.32011 198.502 10.2545 198.522 11.1914C198.527 11.611 198.527 12.0616 198.527 12.5102C198.541 13.0658 198.541 13.5945 198.541 14.1277V45.133C198.541 45.6712 198.541 46.1964 198.527 46.7258C198.527 47.2076 198.527 47.6489 198.521 48.1032C198.501 49.0234 198.406 49.9412 198.235 50.8491C198.079 51.7099 197.775 52.5444 197.332 53.3232C196.892 54.0823 196.319 54.7751 195.635 55.376C194.952 55.9891 194.163 56.5005 193.296 56.8909C192.418 57.2849 191.479 57.5595 190.509 57.7054C189.475 57.8549 188.431 57.9357 187.384 57.947C186.885 57.9574 186.385 57.9626 185.885 57.9628L184.073 57.9658L14.114 57.963Z" fill="black"/>
<path d="M41.3975 30.0752C41.4155 28.8387 41.786 27.6263 42.4746 26.5508C43.1632 25.4754 44.1476 24.5718 45.336 23.9241C44.581 22.9683 43.585 22.1817 42.4271 21.6268C41.2691 21.072 39.9812 20.764 38.6655 20.7275C35.8588 20.4663 33.1381 22.2161 31.7077 22.2161C30.25 22.2161 28.048 20.7534 25.6769 20.7967C24.1431 20.8406 22.6483 21.2359 21.3382 21.9441C20.028 22.6523 18.9472 23.6493 18.201 24.8379C14.9686 29.7986 17.3797 37.089 20.4761 41.0987C22.0253 43.0623 23.8357 45.2555 26.2048 45.1777C28.523 45.0925 29.3887 43.8673 32.1872 43.8673C34.9597 43.8673 35.7719 45.1777 38.189 45.1282C40.6766 45.0925 42.2439 43.156 43.7387 41.174C44.8518 39.7749 45.7083 38.2287 46.2765 36.5925C44.8312 36.0507 43.5979 35.1438 42.7303 33.9848C41.8627 32.8258 41.3991 31.4661 41.3975 30.0752ZM36.8321 18.0903C38.1884 16.6471 38.8566 14.792 38.6948 12.9191C36.6226 13.112 34.7084 13.9899 33.3338 15.3777C32.6617 16.0558 32.1469 16.8446 31.8189 17.699C31.4909 18.5535 31.3561 19.4569 31.4223 20.3576C32.4587 20.3671 33.4841 20.1679 34.4212 19.7752C35.3583 19.3825 36.1826 18.8064 36.8321 18.0903V18.0903ZM70.7018 40.207H62.7907L60.8908 45.1795H57.5398L65.0333 26.7825H68.5147L76.008 45.1795H72.5999L70.7018 40.207ZM63.6099 37.9124H69.8808L66.7895 29.8425H66.7029L63.6099 37.9124ZM92.1909 38.4738C92.1909 42.6418 89.674 45.3197 85.876 45.3197C84.9139 45.3644 83.957 45.1679 83.115 44.7529C82.273 44.3379 81.5798 43.7211 81.1149 42.9731H81.043V49.6166H77.937V31.7666H80.9436V33.9976H81.0007C81.487 33.2532 82.1919 32.6395 83.0403 32.222C83.8887 31.8044 84.849 31.5986 85.8189 31.6263C89.6593 31.6263 92.1909 34.3173 92.1909 38.4737V38.4738ZM88.9983 38.4738C88.9983 35.7583 87.4152 33.973 84.9996 33.973C82.6263 33.973 81.0302 35.7958 81.0302 38.4737C81.0302 41.1764 82.6263 42.9863 84.9996 42.9863C87.4152 42.9863 88.9983 41.214 88.9983 38.4737V38.4738ZM108.845 38.4738C108.845 42.6418 106.329 45.3197 102.531 45.3197C101.569 45.3644 100.612 45.1679 99.7697 44.7529C98.9277 44.3379 98.2345 43.7211 97.7696 42.9731H97.6978V49.6166H94.5918V31.7666H97.5982V33.9976H97.6553C98.1416 33.2532 98.8464 32.6395 99.6949 32.222C100.543 31.8044 101.504 31.5986 102.473 31.6263C106.314 31.6263 108.845 34.3173 108.845 38.4737V38.4738ZM105.653 38.4738C105.653 35.7583 104.07 33.973 101.654 33.973C99.2809 33.973 97.6847 35.7958 97.6847 38.4737C97.6847 41.1764 99.2809 42.9863 101.654 42.9863C104.07 42.9863 105.653 41.214 105.653 38.4737V38.4738ZM119.853 40.0537C120.083 41.878 122.082 43.0759 124.815 43.0759C127.433 43.0759 129.316 41.878 129.316 40.2329C129.316 38.805 128.18 37.95 125.491 37.3641L122.8 36.7897C118.989 35.9737 117.22 34.3938 117.22 31.8302C117.22 28.6559 120.341 26.4758 124.772 26.4758C129.158 26.4758 132.164 28.6559 132.265 31.8302H129.13C128.942 29.9943 127.23 28.886 124.728 28.886C122.226 28.886 120.514 30.0073 120.514 31.6392C120.514 32.9399 121.607 33.7053 124.282 34.291L126.569 34.7888C130.827 35.6814 132.597 37.1977 132.597 39.8885C132.597 43.3304 129.504 45.4861 124.584 45.4861C119.982 45.4861 116.874 43.3809 116.673 40.0535L119.853 40.0537ZM139.3 28.5925V31.7666H142.178V33.9469H139.3V41.3412C139.3 42.49 139.876 43.0252 141.141 43.0252C141.483 43.02 141.824 42.9987 142.163 42.9615V45.1289C141.594 45.2231 141.016 45.2656 140.438 45.256C137.374 45.256 136.179 44.2362 136.179 41.6349V33.9469H133.979V31.7666H136.179V28.5925H139.3ZM143.844 38.4738C143.844 34.2536 146.648 31.6017 151.021 31.6017C155.408 31.6017 158.199 34.2536 158.199 38.4738C158.199 42.7055 155.423 45.3458 151.021 45.3458C146.62 45.3458 143.844 42.7055 143.844 38.4738ZM155.034 38.4738C155.034 35.5789 153.538 33.8701 151.021 33.8701C148.504 33.8701 147.009 35.5918 147.009 38.4738C147.009 41.3804 148.504 43.0759 151.021 43.0759C153.538 43.0759 155.034 41.3804 155.034 38.4738ZM160.76 31.7666H163.722V34.0496H163.794C163.995 33.3365 164.466 32.7064 165.129 32.2651C165.792 31.8238 166.606 31.5982 167.434 31.6263C167.792 31.6252 168.149 31.6596 168.498 31.729V34.3042C168.046 34.1818 167.575 34.1256 167.103 34.1379C166.651 34.1216 166.201 34.1921 165.784 34.3446C165.366 34.497 164.991 34.7277 164.683 35.0209C164.376 35.314 164.144 35.6627 164.003 36.043C163.861 36.4232 163.815 36.826 163.866 37.2238V45.1795H160.76V31.7666ZM182.819 41.2399C182.401 43.6749 179.726 45.3458 176.303 45.3458C171.901 45.3458 169.169 42.7316 169.169 38.5374C169.169 34.3303 171.916 31.6017 176.172 31.6017C180.359 31.6017 182.992 34.1509 182.992 38.2177V39.161H172.304V39.3273C172.255 39.8209 172.325 40.3182 172.509 40.7861C172.693 41.2541 172.987 41.6819 173.372 42.0412C173.757 42.4006 174.224 42.6832 174.742 42.8703C175.259 43.0574 175.816 43.1448 176.375 43.1266C177.109 43.1876 177.845 43.0369 178.475 42.6969C179.105 42.357 179.594 41.846 179.869 41.2399H182.819ZM172.319 37.2368H179.884C179.912 36.793 179.836 36.3488 179.661 35.9322C179.486 35.5156 179.216 35.1355 178.867 34.8158C178.519 34.4962 178.1 34.2438 177.636 34.0746C177.172 33.9054 176.674 33.823 176.172 33.8325C175.667 33.8299 175.165 33.916 174.697 34.086C174.229 34.256 173.804 34.5065 173.445 34.823C173.087 35.1395 172.803 35.5157 172.61 35.93C172.417 36.3443 172.318 36.7885 172.319 37.2368V37.2368ZM63.2207 12.9349C63.8719 12.8935 64.5253 12.9807 65.1339 13.1902C65.7425 13.3998 66.291 13.7264 66.7399 14.1466C67.1888 14.5668 67.5268 15.0701 67.7297 15.6201C67.9326 16.1702 67.9953 16.7533 67.9131 17.3274C67.9131 20.1514 66.1912 21.7748 63.2207 21.7748H59.6184V12.9348L63.2207 12.9349ZM61.1674 20.5246H63.0477C63.513 20.5492 63.9786 20.4815 64.4107 20.3265C64.8428 20.1716 65.2305 19.9331 65.5455 19.6286C65.8605 19.324 66.095 18.9611 66.2318 18.5661C66.3686 18.1711 66.4043 17.7541 66.3364 17.3453C66.3994 16.9381 66.3601 16.5237 66.2212 16.1316C66.0822 15.7395 65.8472 15.3795 65.5329 15.0774C65.2186 14.7753 64.8328 14.5385 64.4032 14.3841C63.9735 14.2296 63.5106 14.1614 63.0477 14.1841H61.1674V20.5246ZM69.6629 18.4363C69.6155 17.9979 69.6721 17.5555 69.8289 17.1377C69.9858 16.7198 70.2394 16.3356 70.5736 16.0097C70.9077 15.6838 71.3151 15.4234 71.7694 15.2452C72.2238 15.067 72.7151 14.9749 73.212 14.9749C73.7088 14.9749 74.2002 15.067 74.6545 15.2452C75.1089 15.4234 75.5162 15.6838 75.8504 16.0097C76.1845 16.3356 76.4382 16.7198 76.595 17.1377C76.7518 17.5555 76.8084 17.9979 76.7611 18.4363C76.8094 18.8752 76.7536 19.3182 76.5973 19.7368C76.4409 20.1555 76.1874 20.5405 75.8532 20.8671C75.5189 21.1938 75.1112 21.4548 74.6564 21.6334C74.2015 21.8121 73.7095 21.9043 73.212 21.9043C72.7144 21.9043 72.2224 21.8121 71.7676 21.6334C71.3127 21.4548 70.905 21.1938 70.5708 20.8671C70.2365 20.5405 69.983 20.1555 69.8267 19.7368C69.6703 19.3182 69.6145 18.8752 69.6629 18.4363ZM75.2334 18.4363C75.2334 16.9902 74.5006 16.1446 73.2145 16.1446C71.9234 16.1446 71.1972 16.9902 71.1972 18.4363C71.1972 19.8939 71.9235 20.733 73.2145 20.733C74.5006 20.733 75.2334 19.8881 75.2334 18.4363V18.4363ZM86.1968 21.7746H84.6558L83.1005 16.8614H82.983L81.4341 21.7746H79.908L77.8336 15.1035H79.3399L80.6882 20.1939H80.7992L82.3465 15.1035H83.7713L85.3187 20.1939H85.4361L86.7777 15.1035H88.2631L86.1968 21.7746ZM90.0078 15.1037H91.4376V16.1634H91.5486C91.7369 15.7827 92.0544 15.4636 92.457 15.2506C92.8596 15.0375 93.3272 14.9411 93.7945 14.9748C94.1607 14.9504 94.5284 14.9993 94.8704 15.118C95.2123 15.2367 95.5197 15.422 95.7699 15.6603C96.0201 15.8986 96.2066 16.1837 96.3155 16.4945C96.4245 16.8054 96.4532 17.134 96.3995 17.456V21.7745H94.9142V17.7866C94.9142 16.7146 94.3885 16.1814 93.2901 16.1814C93.0415 16.1712 92.7933 16.2087 92.5626 16.2914C92.3319 16.3742 92.124 16.5001 91.9533 16.6607C91.7827 16.8212 91.6532 17.0126 91.5737 17.2217C91.4943 17.4308 91.4668 17.6526 91.4931 17.872V21.7746H90.0078V15.1037ZM98.7661 12.4994H100.251V21.7746H98.7661V12.4994ZM102.316 18.4363C102.269 17.9978 102.325 17.5554 102.482 17.1375C102.639 16.7195 102.893 16.3353 103.227 16.0093C103.561 15.6834 103.968 15.423 104.423 15.2447C104.877 15.0665 105.369 14.9745 105.866 14.9745C106.363 14.9745 106.854 15.0665 107.308 15.2447C107.763 15.423 108.17 15.6834 108.504 16.0093C108.839 16.3353 109.092 16.7195 109.249 17.1375C109.406 17.5554 109.463 17.9978 109.415 18.4363C109.463 18.8751 109.407 19.318 109.251 19.7365C109.094 20.155 108.841 20.5399 108.506 20.8664C108.172 21.1929 107.765 21.4538 107.31 21.6323C106.855 21.8109 106.363 21.9031 105.866 21.9031C105.368 21.9031 104.876 21.8109 104.421 21.6323C103.967 21.4538 103.559 21.1929 103.225 20.8664C102.89 20.5399 102.637 20.155 102.48 19.7365C102.324 19.318 102.268 18.8751 102.316 18.4363V18.4363ZM107.887 18.4363C107.887 16.9902 107.154 16.1446 105.868 16.1446C104.577 16.1446 103.85 16.9902 103.85 18.4363C103.85 19.8939 104.577 20.733 105.868 20.733C107.154 20.733 107.887 19.8881 107.887 18.4363ZM110.979 19.8881C110.979 18.6872 111.987 17.9949 113.778 17.8966L115.816 17.7924V17.2166C115.816 16.512 115.291 16.1142 114.276 16.1142C113.447 16.1142 112.872 16.384 112.707 16.8557H111.269C111.421 15.7097 112.637 14.9749 114.344 14.9749C116.231 14.9749 117.295 15.8075 117.295 17.2166V21.7746H115.865V20.8371H115.748C115.509 21.1734 115.174 21.4476 114.777 21.6316C114.38 21.8156 113.935 21.9029 113.487 21.8845C113.171 21.9137 112.852 21.8838 112.55 21.7968C112.248 21.7099 111.97 21.5678 111.733 21.3797C111.497 21.1916 111.308 20.9617 111.178 20.7048C111.048 20.4479 110.98 20.1697 110.979 19.8881V19.8881ZM115.816 19.318V18.7603L113.979 18.8644C112.942 18.9259 112.472 19.2385 112.472 19.8265C112.472 20.4269 113.06 20.7764 113.868 20.7764C114.104 20.7976 114.344 20.7765 114.571 20.7141C114.798 20.6517 115.009 20.5495 115.191 20.4134C115.373 20.2774 115.522 20.1103 115.629 19.9221C115.737 19.7339 115.8 19.5285 115.816 19.318V19.318ZM119.247 18.4363C119.247 16.3283 120.47 14.993 122.371 14.993C122.842 14.9738 123.308 15.0736 123.717 15.2809C124.126 15.4881 124.46 15.7942 124.679 16.1634H124.79V12.4992H126.275V21.7745H124.852V20.7204H124.735C124.498 21.0871 124.153 21.3893 123.736 21.5945C123.32 21.7997 122.848 21.8999 122.371 21.8844C120.457 21.8844 119.247 20.549 119.247 18.4361V18.4363ZM120.782 18.4363C120.782 19.8511 121.534 20.7026 122.792 20.7026C124.044 20.7026 124.818 19.8389 124.818 18.4419C124.818 17.0517 124.036 16.1757 122.792 16.1757C121.542 16.1757 120.782 17.0329 120.782 18.4363ZM132.421 18.4363C132.373 17.9979 132.43 17.5555 132.587 17.1377C132.743 16.7198 132.997 16.3356 133.331 16.0097C133.665 15.6838 134.073 15.4234 134.527 15.2452C134.981 15.067 135.473 14.9749 135.97 14.9749C136.466 14.9749 136.958 15.067 137.412 15.2452C137.867 15.4234 138.274 15.6838 138.608 16.0097C138.942 16.3356 139.196 16.7198 139.353 17.1377C139.509 17.5555 139.566 17.9979 139.519 18.4363C139.567 18.8752 139.511 19.3182 139.355 19.7368C139.199 20.1555 138.945 20.5405 138.611 20.8671C138.277 21.1938 137.869 21.4548 137.414 21.6334C136.959 21.8121 136.467 21.9043 135.97 21.9043C135.472 21.9043 134.98 21.8121 134.525 21.6334C134.07 21.4548 133.663 21.1938 133.328 20.8671C132.994 20.5405 132.741 20.1555 132.584 19.7368C132.428 19.3182 132.372 18.8752 132.421 18.4363V18.4363ZM137.991 18.4363C137.991 16.9902 137.258 16.1446 135.972 16.1446C134.681 16.1446 133.955 16.9902 133.955 18.4363C133.955 19.8939 134.681 20.733 135.972 20.733C137.258 20.733 137.991 19.8881 137.991 18.4363ZM141.512 15.1037H142.941V16.1634H143.052C143.241 15.7827 143.558 15.4636 143.961 15.2506C144.363 15.0375 144.831 14.9411 145.298 14.9748C145.665 14.9504 146.032 14.9993 146.374 15.118C146.716 15.2367 147.024 15.422 147.274 15.6603C147.524 15.8986 147.71 16.1837 147.819 16.4945C147.928 16.8054 147.957 17.134 147.903 17.456V21.7745H146.418V17.7866C146.418 16.7146 145.892 16.1814 144.794 16.1814C144.545 16.1712 144.297 16.2087 144.066 16.2914C143.836 16.3742 143.628 16.5001 143.457 16.6607C143.287 16.8212 143.157 17.0126 143.078 17.2217C142.998 17.4308 142.971 17.6526 142.997 17.872V21.7746H141.512L141.512 15.1037ZM156.296 13.4428V15.134H157.927V16.2429H156.296V19.6731C156.296 20.372 156.621 20.678 157.36 20.678C157.549 20.6774 157.738 20.6673 157.926 20.6475V21.7443C157.66 21.7865 157.389 21.809 157.118 21.8115C155.467 21.8115 154.809 21.2964 154.809 20.0103V16.2429H153.614V15.1339H154.809V13.4429L156.296 13.4428ZM159.955 12.4994H161.428V16.1757H161.545C161.742 15.7915 162.069 15.4706 162.479 15.2567C162.89 15.0429 163.365 14.9464 163.84 14.9806C164.204 14.963 164.568 15.0169 164.906 15.1384C165.244 15.26 165.548 15.4462 165.796 15.6837C166.043 15.9213 166.229 16.2044 166.339 16.5127C166.448 16.8211 166.48 17.1472 166.432 17.4677V21.7746H164.945V17.7924C164.945 16.7268 164.385 16.1872 163.335 16.1872C163.08 16.1687 162.823 16.1998 162.583 16.2784C162.343 16.357 162.125 16.4812 161.944 16.6423C161.764 16.8034 161.625 16.9975 161.538 17.211C161.451 17.4245 161.418 17.6523 161.441 17.8785V21.7746H159.955V12.4994ZM175.092 19.9733C174.89 20.583 174.453 21.1104 173.857 21.4633C173.261 21.8161 172.544 21.9719 171.831 21.9034C171.335 21.915 170.842 21.8308 170.387 21.6567C169.931 21.4826 169.524 21.2227 169.193 20.8951C168.863 20.5675 168.616 20.18 168.471 19.7595C168.326 19.339 168.287 18.8956 168.354 18.4601C168.288 18.0232 168.329 17.5789 168.473 17.1571C168.618 16.7354 168.863 16.3461 169.192 16.0156C169.521 15.6851 169.926 15.4211 170.381 15.2415C170.835 15.062 171.327 14.971 171.824 14.9748C173.918 14.9748 175.182 16.2429 175.182 18.3377V18.7971H169.867V18.8709C169.844 19.1157 169.879 19.3621 169.969 19.5944C170.06 19.8266 170.204 20.0395 170.393 20.2194C170.581 20.3993 170.81 20.5423 171.065 20.6392C171.32 20.7361 171.595 20.7848 171.872 20.782C172.227 20.8198 172.587 20.7631 172.906 20.6191C173.225 20.4751 173.488 20.2503 173.662 19.9733H175.092ZM169.867 17.8235H173.669C173.687 17.5996 173.653 17.3747 173.568 17.1633C173.483 16.9519 173.349 16.7586 173.174 16.5958C173 16.4331 172.789 16.3045 172.555 16.2183C172.321 16.1321 172.069 16.0902 171.816 16.0954C171.559 16.0925 171.304 16.1353 171.066 16.2211C170.829 16.3069 170.612 16.4341 170.431 16.5952C170.249 16.7563 170.106 16.9479 170.009 17.1589C169.912 17.3698 169.864 17.5958 169.867 17.8235V17.8235Z" fill="white"/>
</svg>
