<svg width="200" height="60" viewBox="0 0 200 60" fill="none" xmlns="http://www.w3.org/2000/svg">
<path d="M192.593 59.2593H7.40742C3.33338 59.2593 0 55.9259 0 51.8519V7.40744C0 3.33333 3.33332 0 7.40742 0H192.593C196.667 0 200 3.33333 200 7.40744V51.8518C200 55.9259 196.667 59.2593 192.593 59.2593" fill="black"/>
<path d="M192.593 0H7.40742C3.33338 0 0 3.33333 0 7.40744V51.8518C0 55.9259 3.33332 59.2593 7.40742 59.2593H192.593C196.667 59.2593 200 55.9259 200 51.8519V7.40744C200 3.33333 196.667 0 192.593 0H192.593ZM192.593 1.18515C196.024 1.18515 198.815 3.9769 198.815 7.40744V51.8518C198.815 55.283 196.024 58.0747 192.593 58.0747H7.40742C3.97693 58.0747 1.1852 55.283 1.1852 51.8519V7.40744C1.1852 3.9769 3.97687 1.18521 7.40742 1.18521H192.593" fill="#A6A6A6"/>
<path d="M70.2496 15.1754C70.2496 16.4166 69.882 17.405 69.1458 18.1423C68.3096 19.0191 67.2199 19.4578 65.8802 19.4578C64.5972 19.4578 63.5064 19.0133 62.6093 18.1232C61.7107 17.2338 61.2622 16.1308 61.2622 14.8148C61.2622 13.4982 61.7107 12.3959 62.6093 11.5057C63.5064 10.6163 64.5972 10.1712 65.8802 10.1712C66.5168 10.1712 67.1262 10.2957 67.7049 10.544C68.2836 10.7929 68.7477 11.1232 69.095 11.537L68.3136 12.3188C67.7252 11.6157 66.915 11.2644 65.8802 11.2644C64.9445 11.2644 64.1354 11.5932 63.4526 12.2511C62.7696 12.9098 62.4283 13.7639 62.4283 14.8148C62.4283 15.8658 62.7696 16.7198 63.4526 17.3785C64.1354 18.0365 64.9444 18.3652 65.8802 18.3652C66.8728 18.3652 67.7003 18.0347 68.3629 17.3727C68.7929 16.9415 69.0416 16.342 69.1082 15.5723H65.8801V14.5046H70.1875C70.2291 14.7368 70.2494 14.9595 70.2494 15.1754" fill="white"/>
<path d="M70.2492 15.1755H70.101C70.0998 16.3884 69.7455 17.3304 69.0406 18.0377L69.0391 18.0389L69.0384 18.0401C68.2288 18.8866 67.1881 19.3079 65.8797 19.3097C64.631 19.3079 63.5858 18.882 62.713 18.0186C61.8422 17.1534 61.4116 16.0972 61.4099 14.8149C61.4116 13.5319 61.8422 12.4763 62.713 11.6118C63.5858 10.7477 64.631 10.3212 65.8797 10.3194C66.4972 10.3194 67.0852 10.4399 67.646 10.68C68.2073 10.922 68.6507 11.239 68.9811 11.6327L69.0945 11.5371L68.9898 11.4323L68.2085 12.2147L68.3132 12.3189L68.4273 12.224C67.8114 11.4861 66.947 11.1141 65.8798 11.1163C64.9094 11.1151 64.0558 11.4619 63.3497 12.1448C62.6367 12.8299 62.2786 13.7321 62.2798 14.8149C62.2786 15.8977 62.6367 16.7998 63.3497 17.485C64.0558 18.1679 64.9094 18.5146 65.8797 18.5134C66.9052 18.5152 67.7791 18.1673 68.4672 17.4775C68.9267 17.0168 69.1871 16.3786 69.2554 15.5851L69.2692 15.4242H66.0279V14.6528H70.1871V14.5047L70.0412 14.5307C70.0818 14.7553 70.1009 14.9688 70.1009 15.1755H70.3972C70.3972 14.9503 70.3763 14.7189 70.3329 14.4782L70.311 14.3565H65.7317V15.7205H69.1078V15.5724L68.9603 15.5596C68.8949 16.3051 68.6576 16.8664 68.2577 17.2681C67.6212 17.9023 66.8399 18.2153 65.8798 18.2171C64.9788 18.2159 64.2143 17.9057 63.5552 17.272C62.9024 16.6407 62.5777 15.8346 62.5761 14.8149C62.5777 13.7952 62.9024 12.9891 63.5552 12.3577C64.2143 11.724 64.9787 11.4138 65.8798 11.4126C66.8816 11.415 67.638 11.746 68.1999 12.4144L68.3041 12.5382L69.1993 11.6419L69.2954 11.5458L69.2079 11.4421C68.844 11.0082 68.359 10.6638 67.7629 10.4081C67.1657 10.1516 66.5355 10.0231 65.8798 10.0231C64.5627 10.022 63.4261 10.4849 62.5042 11.4011C61.5789 12.3155 61.1125 13.4648 61.1138 14.8149C61.1125 16.1643 61.5789 17.3143 62.5048 18.2292C63.4261 19.1448 64.5627 19.6072 65.8798 19.606C67.2514 19.6072 68.3891 19.1516 69.2526 18.2448L69.1454 18.1424L69.2502 18.2472C70.0176 17.4804 70.3983 16.4445 70.3973 15.1755H70.2491H70.2492ZM77.0777 11.4624H73.0297V14.2808H76.6803V15.3489H73.0297V18.1673H77.0777V19.2593H71.8885V10.3704H77.0777V11.4624" fill="white"/>
<path d="M77.0781 11.4623V11.3142H72.8819V14.4289H76.5324V15.2003L72.8818 15.2007V18.3154H76.9299V19.1111H72.037V10.5185H76.9299V11.4623H77.0781V11.3142V11.4623H77.2262V10.2222H71.7407V19.4074H77.2262V18.0191H73.1781V15.497H76.8287V14.1326H73.1781V11.6105H77.2262V11.4623H77.0781V11.4623ZM81.8946 19.2593H80.7517V11.4623H78.269V10.3703H84.3773V11.4623H81.8946V19.2592" fill="white"/>
<path d="M81.8948 19.2593V19.1111H80.9V11.3142H78.4174V10.5186H84.2293V11.3142H81.7467V19.2592H81.8948V19.1111V19.2592H82.043V11.6105H84.5256V10.2222H78.1211V11.6104H80.6037V19.4073H82.043V19.2592H81.8948V19.2593ZM88.7971 19.2593V10.3703H89.9389V19.2592H88.7971" fill="white"/>
<path d="M88.7968 19.2593H88.945V10.5185H89.7904V19.1111H88.7968V19.2592H88.945H88.7968V19.4074H90.0867V10.2222H88.6487V19.4074H88.7968V19.2592V19.2593ZM95.0051 19.2593H93.8622V11.4623H91.3796V10.3703H97.4878V11.4623H95.0051V19.2592" fill="white"/>
<path d="M95.0053 19.2593V19.1111H94.0105V11.3142H91.528V10.5186H97.3398V11.3142H94.8572V19.2592H95.0053V19.1111V19.2592H95.1535V11.6105H97.6361V10.2222H91.2317V11.6104H93.7142V19.4073H95.1535V19.2592H95.0053V19.2593ZM103.377 17.3664C104.035 18.0324 104.84 18.3651 105.792 18.3651C106.744 18.3651 107.549 18.0324 108.206 17.3664C108.865 16.7003 109.195 15.8489 109.195 14.8148C109.195 13.7808 108.865 12.9293 108.206 12.2633C107.549 11.5972 106.744 11.2644 105.792 11.2644C104.84 11.2644 104.035 11.5972 103.377 12.2633C102.72 12.9293 102.39 13.7807 102.39 14.8148C102.39 15.8489 102.72 16.7003 103.377 17.3664ZM109.051 18.1105C108.177 19.0091 107.09 19.4578 105.792 19.4578C104.492 19.4578 103.406 19.0091 102.534 18.1105C101.659 17.2128 101.224 16.1141 101.224 14.8148C101.224 13.5155 101.659 12.4165 102.534 11.5191C103.406 10.6202 104.492 10.1712 105.792 10.1712C107.084 10.1712 108.167 10.6226 109.045 11.5249C109.922 12.427 110.361 13.5236 110.361 14.8148C110.361 16.1141 109.923 17.2128 109.051 18.1105Z" fill="white"/>
<path d="M103.377 17.3665L103.272 17.4706C103.954 18.1633 104.805 18.5152 105.792 18.5134C106.778 18.5152 107.631 18.1633 108.312 17.4706C108.999 16.7772 109.344 15.8802 109.343 14.8149C109.344 13.7496 108.999 12.8525 108.312 12.1591C107.631 11.4664 106.778 11.1146 105.792 11.1163C104.805 11.1146 103.954 11.4664 103.272 12.1591C102.587 12.8525 102.24 13.7496 102.242 14.8149C102.24 15.8802 102.587 16.7772 103.272 17.4706L103.377 17.3665L103.482 17.2623C102.854 16.6227 102.54 15.8183 102.539 14.8149C102.54 13.8115 102.854 13.007 103.482 12.3675C104.117 11.7281 104.874 11.4144 105.792 11.4127C106.709 11.4144 107.468 11.7281 108.101 12.3675C108.731 13.007 109.045 13.8115 109.046 14.8149C109.045 15.8182 108.731 16.6227 108.101 17.2623C107.468 17.9017 106.709 18.2153 105.792 18.217C104.874 18.2153 104.117 17.9017 103.482 17.2623L103.377 17.3665ZM109.051 18.1106L108.945 18.0076C108.096 18.878 107.057 19.308 105.792 19.3097C104.526 19.3079 103.488 18.878 102.64 18.0076L102.636 18.003L102.64 18.0076C101.792 17.1343 101.374 16.0811 101.372 14.8149C101.374 13.5486 101.792 12.4954 102.64 11.6222C103.488 10.7517 104.526 10.3212 105.792 10.3195C107.049 10.3212 108.085 10.7535 108.94 11.6285C109.79 12.5058 110.211 13.5573 110.213 14.8149C110.211 16.0811 109.791 17.1343 108.945 18.0076L109.051 18.1106L109.158 18.2135C110.056 17.2912 110.51 16.147 110.509 14.8149C110.51 13.4903 110.054 12.3485 109.152 11.422C108.249 10.4919 107.118 10.0215 105.792 10.0231C104.459 10.0215 103.324 10.4897 102.427 11.4162V11.4156C101.528 12.3386 101.075 13.4827 101.076 14.8149C101.075 16.147 101.528 17.2912 102.427 18.2141L102.431 18.2183L102.427 18.2135C103.324 19.1401 104.459 19.6072 105.792 19.606C107.125 19.6072 108.259 19.1401 109.158 18.2135L109.051 18.1106V18.1106ZM111.964 19.2594V10.3704H113.354L117.674 17.2853H117.723L117.674 15.5723V10.3704H118.817V19.2592H117.625L113.105 12.0092H113.056L113.105 13.7228V19.2592H111.964" fill="white"/>
<path d="M111.964 19.2593H112.112V10.5185H113.272L117.592 17.4334H117.875L117.822 15.5701V10.5186H118.669V19.1111H117.707L113.187 11.861H112.904L112.957 13.7252V19.1111H111.964V19.2592H112.112H111.964V19.4074H113.253V13.7204L113.204 12.0052L113.056 12.0092V12.1573H113.105V12.0092L112.979 12.0879L117.542 19.4074H118.965V10.2222H117.526V15.574L117.575 17.2893L117.723 17.2853V17.1371H117.674V17.2853L117.799 17.2066L113.436 10.2222H111.816V19.4074H111.964V19.2592L111.964 19.2593ZM158.424 44.4444H161.188V25.9241H158.424L158.424 44.4444ZM183.323 32.5956L180.154 40.625H180.059L176.771 32.5955H173.793L178.725 43.8182L175.913 50.0607H178.797L186.397 32.5955L183.323 32.5956ZM167.646 42.3409C166.739 42.3409 165.477 41.8883 165.477 40.768C165.477 39.3385 167.051 38.7905 168.407 38.7905C169.624 38.7905 170.194 39.0526 170.933 39.4104C170.719 41.1256 169.242 42.3409 167.646 42.3409V42.3409ZM167.979 32.1904C165.978 32.1904 163.905 33.0723 163.048 35.0261L165.501 36.0504C166.025 35.0261 167.002 34.6921 168.027 34.6921C169.456 34.6921 170.91 35.5503 170.933 37.0753V37.2657C170.433 36.9797 169.362 36.5509 168.051 36.5509C165.406 36.5509 162.713 38.004 162.713 40.7205C162.713 43.1985 164.882 44.7951 167.311 44.7951C169.171 44.7951 170.194 43.9612 170.839 42.9844H170.933V44.4138H173.602V37.313C173.602 34.0255 171.148 32.1904 167.979 32.1904V32.1904ZM150.895 34.85H146.963V28.5018H150.895C152.962 28.5018 154.135 30.2129 154.135 31.6758C154.135 33.1111 152.962 34.85 150.895 34.85ZM150.824 25.9241H144.2V44.4444H146.963V37.4277H150.824C153.888 37.4277 156.899 35.2094 156.899 31.6758C156.899 28.1424 153.888 25.9241 150.824 25.9241V25.9241ZM114.704 42.3443C112.794 42.3443 111.195 40.7454 111.195 38.5492C111.195 36.3299 112.794 34.7066 114.704 34.7066C116.589 34.7066 118.069 36.3299 118.069 38.5492C118.069 40.7454 116.589 42.3443 114.704 42.3443H114.704ZM117.878 33.6326H117.783C117.162 32.8929 115.968 32.2246 114.465 32.2246C111.314 32.2246 108.427 34.9931 108.427 38.5492C108.427 42.0816 111.314 44.8264 114.465 44.8264C115.968 44.8264 117.162 44.1579 117.783 43.3946H117.878V44.3015C117.878 46.7124 116.589 48.0012 114.513 48.0012C112.818 48.0012 111.768 46.7835 111.338 45.7575L108.928 46.7598C109.62 48.4305 111.458 50.4833 114.513 50.4833C117.759 50.4833 120.504 48.5735 120.504 43.9196V32.6065H117.878V33.6326ZM122.413 44.4444H125.181V25.9235H122.413V44.4444ZM129.263 38.3345C129.191 35.8998 131.148 34.6591 132.556 34.6591C133.655 34.6591 134.585 35.2077 134.895 35.996L129.263 38.3345ZM137.855 36.2343C137.33 34.8257 135.73 32.2246 132.461 32.2246C129.215 32.2246 126.518 34.7783 126.518 38.5255C126.518 42.0579 129.191 44.8264 132.771 44.8264C135.659 44.8264 137.33 43.0601 138.022 42.034L135.874 40.6017C135.159 41.6521 134.179 42.3443 132.771 42.3443C131.363 42.3443 130.361 41.6997 129.716 40.4351L138.141 36.9502L137.855 36.2343ZM70.7317 34.1579V36.831H77.1279C76.937 38.3345 76.4358 39.4323 75.6719 40.1961C74.7414 41.1273 73.2855 42.1533 70.7316 42.1533C66.7934 42.1533 63.7148 38.9791 63.7148 35.041C63.7148 31.103 66.7934 27.9283 70.7317 27.9283C72.856 27.9283 74.4069 28.7638 75.5527 29.8379L77.4382 27.9525C75.8392 26.4247 73.7148 25.2553 70.7317 25.2553C65.3375 25.2553 60.8027 29.647 60.8027 35.041C60.8027 40.4351 65.3375 44.8264 70.7317 44.8264C73.6436 44.8264 75.8392 43.8721 77.5574 42.0816C79.3237 40.3154 79.8729 37.8333 79.8729 35.8287C79.8729 35.2077 79.8253 34.6354 79.7293 34.1579H70.7317ZM87.1448 42.3443C85.2351 42.3443 83.5881 40.769 83.5881 38.5255C83.5881 36.258 85.2351 34.7066 87.1448 34.7066C89.0539 34.7066 90.7008 36.258 90.7008 38.5255C90.7008 40.7691 89.0539 42.3443 87.1448 42.3443ZM87.1448 32.2246C83.6598 32.2246 80.8195 34.8737 80.8195 38.5255C80.8195 42.1533 83.6598 44.8264 87.1448 44.8264C90.6291 44.8264 93.4694 42.1533 93.4694 38.5255C93.4694 34.8737 90.6291 32.2246 87.1448 32.2246ZM100.942 42.3443C99.0332 42.3443 97.386 40.769 97.386 38.5255C97.386 36.258 99.0332 34.7066 100.942 34.7066C102.851 34.7066 104.498 36.258 104.498 38.5255C104.498 40.7691 102.851 42.3443 100.942 42.3443H100.942ZM100.942 32.2246C97.4573 32.2246 94.6176 34.8737 94.6176 38.5255C94.6176 42.1533 97.4573 44.8264 100.942 44.8264C104.427 44.8264 107.267 42.1533 107.267 38.5255C107.267 34.8737 104.427 32.2246 100.942 32.2246H100.942Z" fill="white"/>
<path d="M15.5681 11.276C15.0709 11.7246 14.7742 12.4728 14.7742 13.4659V13.2414V46.0134V45.7975C14.7742 46.7147 15.0287 47.423 15.4598 47.8791L15.5698 47.9845V47.9849C15.9188 48.2998 16.3662 48.467 16.8789 48.4664C17.38 48.4664 17.9437 48.3067 18.5386 47.9694L40.0426 35.7512L47.4291 31.5538C48.3672 31.0209 48.8939 30.3334 48.9819 29.6331V29.6302C48.8939 28.9283 48.3672 28.2413 47.4292 27.7084L40.042 23.5115L18.5387 11.2933C17.9425 10.9554 17.3784 10.7951 16.876 10.7951C16.3638 10.7951 15.917 10.9618 15.5682 11.276H15.5681Z" fill="#00C1FF"/>
<path d="M15.5699 47.9844L15.4598 47.8791C15.0287 47.423 14.7742 46.7147 14.7742 45.7975V46.0134V13.2495V13.4659C14.7742 12.4727 15.0709 11.7246 15.5681 11.276L33.9234 29.6308L15.5699 47.9844Z" fill="url(#paint0_linear_918_7)"/>
<path d="M40.0428 35.7512L33.9236 29.6309L40.0423 23.5116L47.4294 27.7083C48.3674 28.2414 48.8941 28.9283 48.9821 29.6303V29.6331C48.8941 30.3334 48.3674 31.021 47.4294 31.5538L40.0429 35.7511" fill="url(#paint1_linear_918_7)"/>
<path d="M16.879 48.4664C16.3663 48.4669 15.9189 48.2996 15.5701 47.9848V47.9844L33.9236 29.6308L40.0428 35.7511L18.5387 47.9693C17.9438 48.3067 17.3801 48.4664 16.879 48.4664Z" fill="url(#paint2_linear_918_7)"/>
<path d="M33.9237 29.6309L15.5684 11.2761C15.9173 10.9618 16.3641 10.7952 16.8762 10.7952C17.3786 10.7952 17.9428 10.9554 18.5389 11.2934L40.0424 23.5116L33.9236 29.6309" fill="url(#paint3_linear_918_7)"/>
<path d="M16.8798 48.6834C16.3671 48.6834 15.9191 48.5162 15.5702 48.2014L15.5696 48.2019C15.5681 48.2005 15.5666 48.1991 15.565 48.1979L15.4695 48.1047C15.4665 48.1018 15.4637 48.0984 15.4602 48.095L15.5702 47.9849C15.9192 48.2997 16.3665 48.467 16.8793 48.4664C17.3803 48.4664 17.944 48.3067 18.539 47.9693L40.043 35.7511L40.1808 35.8889L40.0412 35.9682L18.5389 48.1857C17.9967 48.4931 17.481 48.6533 17.0152 48.68C16.9701 48.6822 16.925 48.6833 16.8798 48.6833" fill="url(#paint4_linear_918_7)"/>
<path d="M15.4598 48.095C15.0287 47.6389 14.7742 46.9311 14.7742 46.0134V45.7975C14.7742 46.7147 15.0287 47.423 15.4598 47.8791L15.5698 47.9844L15.4598 48.095" fill="url(#paint5_linear_918_7)"/>
<path d="M40.1805 35.8889L40.0427 35.7511L47.4292 31.5538C48.3673 31.0209 48.894 30.3333 48.982 29.633C48.982 29.89 48.9246 30.147 48.8107 30.3971C48.5809 30.9011 48.1204 31.3773 47.4293 31.7702L40.1805 35.8889" fill="url(#paint6_linear_918_7)"/>
<path d="M48.9823 29.6303C48.8943 28.9283 48.3677 28.2414 47.4296 27.7084L40.0425 23.5116L40.1803 23.3738H40.1809L47.4296 27.4925C48.4638 28.0805 48.9817 28.8553 48.9823 29.6303" fill="url(#paint7_linear_918_7)"/>
<path d="M14.7742 13.4659V13.2395C14.7742 13.1579 14.7764 13.078 14.7806 13.0005V12.997C14.7806 12.996 14.7806 12.9948 14.781 12.9936V12.9849C14.8256 12.1949 15.0709 11.5787 15.4598 11.1672L15.5681 11.276C15.0709 11.7246 14.7742 12.4728 14.7742 13.4659Z" fill="url(#paint8_linear_918_7)"/>
<path d="M40.0424 23.5116L18.539 11.2933C17.9428 10.9554 17.3787 10.7951 16.8763 10.7951C16.3642 10.7951 15.9174 10.9617 15.5685 11.276L15.4602 11.1672C15.494 11.1314 15.5292 11.0969 15.5656 11.0637C15.5667 11.0625 15.5685 11.0613 15.5696 11.0602C15.9158 10.7483 16.3578 10.5816 16.8654 10.5786H16.8763C17.3787 10.5786 17.9428 10.739 18.539 11.077L40.1808 23.3733L40.1802 23.3738L40.0424 23.5116" fill="url(#paint9_linear_918_7)"/>
<defs>
<linearGradient id="paint0_linear_918_7" x1="26.5043" y1="12.9032" x2="10.7118" y2="28.7467" gradientUnits="userSpaceOnUse">
<stop stop-color="#00A0FF"/>
<stop offset="0.00657" stop-color="#00A1FF"/>
<stop offset="0.2601" stop-color="#00BEFF"/>
<stop offset="0.5122" stop-color="#00D2FF"/>
<stop offset="0.7604" stop-color="#00DFFF"/>
<stop offset="1" stop-color="#00E3FF"/>
</linearGradient>
<linearGradient id="paint1_linear_918_7" x1="50.1251" y1="29.5251" x2="14.2776" y2="29.5251" gradientUnits="userSpaceOnUse">
<stop stop-color="#FFE000"/>
<stop offset="0.4087" stop-color="#FFBD00"/>
<stop offset="0.7754" stop-color="#FFA500"/>
<stop offset="1" stop-color="#FF9C00"/>
</linearGradient>
<linearGradient id="paint2_linear_918_7" x1="36.794" y1="35.4497" x2="10.0321" y2="62.102" gradientUnits="userSpaceOnUse">
<stop stop-color="#FF3A44"/>
<stop offset="1" stop-color="#C31162"/>
</linearGradient>
<linearGradient id="paint3_linear_918_7" x1="10.8377" y1="8.55489" x2="22.7648" y2="20.4515" gradientUnits="userSpaceOnUse">
<stop stop-color="#32A071"/>
<stop offset="0.0685" stop-color="#2DA771"/>
<stop offset="0.4762" stop-color="#15CF74"/>
<stop offset="0.8009" stop-color="#06E775"/>
<stop offset="1" stop-color="#00F076"/>
</linearGradient>
<linearGradient id="paint4_linear_918_7" x1="36.7809" y1="39.6951" x2="15.3488" y2="61.1966" gradientUnits="userSpaceOnUse">
<stop stop-color="#CC2E36"/>
<stop offset="1" stop-color="#9C0E4E"/>
</linearGradient>
<linearGradient id="paint5_linear_918_7" x1="17.2194" y1="12.9032" x2="3.30637" y2="26.8613" gradientUnits="userSpaceOnUse">
<stop stop-color="#008DE0"/>
<stop offset="0.00657" stop-color="#008DE0"/>
<stop offset="0.2601" stop-color="#00A7E0"/>
<stop offset="0.5122" stop-color="#00B8E0"/>
<stop offset="0.7604" stop-color="#00C4E0"/>
<stop offset="1" stop-color="#00C7E0"/>
</linearGradient>
<linearGradient id="paint6_linear_918_7" x1="50.125" y1="29.6317" x2="14.2775" y2="29.6317" gradientUnits="userSpaceOnUse">
<stop stop-color="#E0C500"/>
<stop offset="0.4087" stop-color="#E0A600"/>
<stop offset="0.7754" stop-color="#E09100"/>
<stop offset="1" stop-color="#E08900"/>
</linearGradient>
<linearGradient id="paint7_linear_918_7" x1="50.1253" y1="29.6318" x2="14.278" y2="29.6318" gradientUnits="userSpaceOnUse">
<stop stop-color="#FFE840"/>
<stop offset="0.4087" stop-color="#FFCE40"/>
<stop offset="0.7754" stop-color="#FFBC40"/>
<stop offset="1" stop-color="#FFB540"/>
</linearGradient>
<linearGradient id="paint8_linear_918_7" x1="17.2042" y1="12.9284" x2="3.80261" y2="25.7909" gradientUnits="userSpaceOnUse">
<stop stop-color="#40B8FF"/>
<stop offset="0.00657" stop-color="#40B9FF"/>
<stop offset="0.2601" stop-color="#40CEFF"/>
<stop offset="0.5122" stop-color="#40DDFF"/>
<stop offset="0.7604" stop-color="#40E7FF"/>
<stop offset="1" stop-color="#40EAFF"/>
</linearGradient>
<linearGradient id="paint9_linear_918_7" x1="10.811" y1="12.4365" x2="20.3814" y2="22.038" gradientUnits="userSpaceOnUse">
<stop stop-color="#65B895"/>
<stop offset="0.0685" stop-color="#62BD95"/>
<stop offset="0.4762" stop-color="#50DB97"/>
<stop offset="0.8009" stop-color="#44ED98"/>
<stop offset="1" stop-color="#40F498"/>
</linearGradient>
</defs>
</svg>
