<svg width="22" height="22" viewBox="0 0 22 22" fill="none" xmlns="http://www.w3.org/2000/svg">
<path d="M10.9808 4.03768e-05C8.80899 7.75875e-05 6.68597 0.644121 4.88019 1.85073C3.07441 3.05734 1.66698 4.77232 0.835872 6.77881C0.00476283 8.7853 -0.212697 10.9932 0.210991 13.1233C0.634679 15.2533 1.68049 17.2099 3.21617 18.7457C4.23401 19.7736 5.44493 20.5902 6.77935 21.1488C8.11378 21.7073 9.54541 21.9966 10.992 22.0002C12.4386 22.0037 13.8716 21.7214 15.2088 21.1695C16.5459 20.6176 17.7609 19.8069 18.7837 18.784C19.8066 17.7611 20.6173 16.5461 21.1693 15.209C21.7212 13.8718 22.0035 12.4388 22 10.9922C21.9964 9.54563 21.7071 8.114 21.1485 6.77958C20.59 5.44515 19.7733 4.23424 18.7454 3.21639C17.7282 2.1935 16.5181 1.38254 15.1853 0.830453C13.8525 0.278366 12.4234 -0.00388447 10.9808 4.03768e-05V4.03768e-05ZM1.56853 10.981C1.56853 5.79104 5.79081 1.56875 10.9808 1.56875V20.3933C5.79081 20.3933 1.56853 16.171 1.56853 10.981Z" fill="#532719"/>
</svg>
