<svg width="24" height="24" viewBox="0 0 24 24" fill="none" xmlns="http://www.w3.org/2000/svg">
<path d="M1.93785 12.1498L2.89635 11.1913V21.7969C2.89635 22.1425 3.03364 22.4739 3.27802 22.7183C3.52241 22.9627 3.85386 23.1 4.19947 23.1H8.89336C9.23897 23.1 9.57042 22.9627 9.8148 22.7183C10.0592 22.4739 10.1965 22.1425 10.1965 21.7969V14.9219C10.1965 14.9028 10.204 14.8846 10.2175 14.8711C10.231 14.8576 10.2493 14.85 10.2684 14.85H13.7058C13.7249 14.85 13.7432 14.8576 13.7567 14.8711C13.7701 14.8846 13.7777 14.9028 13.7777 14.9219V21.7969C13.7777 22.1425 13.915 22.4739 14.1594 22.7183C14.4038 22.9627 14.7352 23.1 15.0808 23.1H19.7799C19.951 23.1 20.1205 23.0663 20.2786 23.0008C20.4367 22.9353 20.5803 22.8393 20.7013 22.7183C20.8223 22.5973 20.9183 22.4537 20.9838 22.2956C21.0493 22.1375 21.083 21.968 21.083 21.7969V11.1965L22.0363 12.1498L22.0363 12.1499L22.0389 12.1523C22.1556 12.261 22.3099 12.3202 22.4694 12.3174C22.6289 12.3146 22.7811 12.25 22.8939 12.1372C23.0067 12.0244 23.0713 11.8722 23.0741 11.7127C23.0769 11.5532 23.0177 11.3989 22.909 11.2822L22.8358 11.3504L22.9065 11.2796L20.9025 9.27563L20.9025 9.27559L12.9172 1.28176L12.9172 1.28172C12.7962 1.1607 12.6525 1.0647 12.4944 0.999207C12.3363 0.933711 12.1668 0.9 11.9957 0.9C11.8245 0.9 11.6551 0.933711 11.497 0.999207C11.3389 1.0647 11.1952 1.16068 11.0742 1.28168C11.0742 1.28169 11.0742 1.28171 11.0742 1.28172L3.07693 9.2704L3.07689 9.27044L1.06768 11.2796L1.06763 11.2796L1.06523 11.2822C0.956483 11.3989 0.897282 11.5532 0.900096 11.7127C0.90291 11.8722 0.967519 12.0244 1.08031 12.1372C1.1931 12.25 1.34527 12.3146 1.50476 12.3174C1.66425 12.3202 1.81861 12.261 1.93531 12.1523L1.93535 12.1523L1.93785 12.1498ZM19.8517 21.7969C19.8517 21.8159 19.8442 21.8342 19.8307 21.8477C19.8172 21.8612 19.7989 21.8688 19.7799 21.8688H15.0808C15.0618 21.8688 15.0435 21.8612 15.03 21.8477C15.0165 21.8342 15.009 21.8159 15.009 21.7969V14.9219C15.009 14.5763 14.8717 14.2448 14.6273 14.0005C14.3829 13.7561 14.0514 13.6188 13.7058 13.6188H10.2684C9.92274 13.6188 9.59129 13.7561 9.34691 14.0005C9.10252 14.2448 8.96523 14.5763 8.96523 14.9219V21.7969C8.96523 21.8159 8.95766 21.8342 8.94418 21.8477C8.9307 21.8612 8.91242 21.8688 8.89336 21.8688H4.19947C4.18041 21.8688 4.16213 21.8612 4.14865 21.8477C4.13517 21.8342 4.12759 21.8159 4.12759 21.7969V9.96178L11.9356 2.1521C11.9356 2.15207 11.9356 2.15204 11.9356 2.15201C11.9491 2.13868 11.9673 2.1312 11.9862 2.1312C12.0052 2.1312 12.0234 2.13868 12.0368 2.152C12.0368 2.15204 12.0369 2.15207 12.0369 2.1521L19.85 9.96523L19.8517 21.7969Z" fill="#532719" stroke="#532719" stroke-width="0.2"/>
</svg>
