<svg width="23" height="24" viewBox="0 0 23 24" fill="none" xmlns="http://www.w3.org/2000/svg">
<path d="M5.37451 6.71835C5.37451 10.012 8.05344 12.6909 11.347 12.6909C14.6404 12.6909 17.3196 10.0164 17.3196 6.72253C17.3196 3.42893 14.6406 0.75 11.347 0.75C8.05368 0.75 5.37451 3.42451 5.37451 6.71835ZM6.73018 6.71835C6.73018 4.17255 8.80124 2.10149 11.347 2.10149C13.8926 2.10149 15.9639 4.17645 15.9639 6.72253C15.9639 9.26832 13.8928 11.3394 11.347 11.3394C8.80152 11.3394 6.73018 9.26443 6.73018 6.71835Z" fill="#532719" stroke="#532719" stroke-width="0.5"/>
<path d="M21.9611 22.5831L21.9613 22.5831V22.5741C21.9613 19.7444 20.8537 17.0806 18.8538 15.0764C16.8533 13.0717 14.185 11.9685 11.3556 11.9685C8.52588 11.9685 5.86209 13.0761 3.8579 15.076C1.8532 17.0764 0.75 19.7405 0.75 22.5741C0.75 22.946 1.05393 23.2499 1.42575 23.2499C1.79756 23.2499 2.10149 22.946 2.10149 22.5741C2.10149 17.4739 6.2512 13.3242 11.3515 13.3242C16.4517 13.3242 20.6014 17.4739 20.6014 22.5741C20.6014 22.946 20.9054 23.2499 21.2772 23.2499C21.6507 23.2499 21.9482 22.9461 21.9611 22.5831Z" fill="#532719" stroke="#532719" stroke-width="0.5"/>
</svg>
